<svg
  xmlns="http://www.w3.org/2000/svg"
  width="256"
  height="256"
  viewBox="0 0 1205 1205"
  fill="none"
>
  <g transform="translate(-2539 -28)">
    <path
      d="M3289.82 895.745C3270.32 892.959 3255.4 890.174 3240.87 886.592 3221.77 882.015 3188.94 870.676 3188.94 868.688 3188.94 867.891 3196.89 861.726 3206.64 854.959 3258.78 819.748 3313.11 767.627 3395.69 673.927 3428.13 637.123 3433.5 630.161 3431.51 626.578 3430.51 624.79 3421.16 613.646 3410.81 601.712 3324.85 503.835 3271.52 452.907 3210.82 410.928 3193.71 399.194 3189.53 395.013 3191.12 393.025 3193.71 390.041 3216.79 382.085 3244.45 374.923 3286.84 363.979 3354.7 362.985 3398.88 372.334 3445.44 382.48 3493.2 401.58 3533.79 426.645 3574.19 451.315 3627.92 496.274 3666.72 538.052 3696.17 570.08 3742.94 625.784 3742.94 629.363 3742.94 634.933 3687.42 699.989 3651.4 736.792 3574.99 814.776 3519.67 851.779 3438.87 879.43 3404.05 891.168 3381.56 894.947 3335.79 895.745 3314.1 896.14 3293.41 895.941 3290.02 895.545Z"
      fill="#24935F"
    />
    <path
      d="M2910.75 893.457C2785.95 873.177 2681.69 800.609 2559.09 648.915L2543.94 630.029 2550.71 621.48C2568.86 598.018 2597.76 564.221 2621.29 539.371 2646.6 512.332 2691.26 470.18 2697.44 467.796 2699.03 467.198 2704.82 462.628 2710 458.055 2732.73 437.18 2802.7 397.812 2834.2 388.27 2842.57 385.885 2851.14 382.703 2853.34 381.71 2860.52 378.529 2895.4 371.77 2921.72 368.787 2968.57 363.221 3006.44 365.805 3052.3 377.137 3077.21 383.497 3101.34 391.85 3101.34 394.434 3101.34 395.427 3095.95 399.802 3089.77 403.777 3047.31 430.418 2997.27 472.964 2953.41 519.489 2913.74 561.437 2856.53 626.25 2856.53 629.232 2856.53 631.816 2891.81 673.17 2925.9 710.549 2989.5 780.529 3035.35 822.481 3087.18 858.068L3101.94 868.009 3092.56 871.985C3078.01 878.349 3052.3 885.901 3030.57 890.475 3004.05 896.24 2937.66 897.831 2910.75 893.457Z"
      fill="#344B52"
    />
    <path
      d="M3124.01 830.022C3068.6 796.827 3000.63 734.017 2944.82 664.85 2926.28 641.793 2920.9 633.05 2922.09 627.88 2924.68 617.942 2985.68 545.991 3017.77 515.184 3052.45 481.99 3073.58 464.501 3108.07 441.842 3130.59 426.735 3137.97 422.959 3144.15 422.959 3150.92 422.959 3187 445.419 3214.51 466.487 3256.17 498.685 3316.37 559.705 3350.26 604.627 3368.39 628.478 3368.59 629.67 3357.03 646.564 3332.12 682.936 3270.92 748.528 3230.66 781.523 3194.38 811.736 3152.12 839.96 3143.35 839.96 3141.75 839.96 3132.99 835.387 3124.01 830.221Z"
      fill="#07858A"
    />
  </g>
</svg>
