<svg width="462" height="232" xmlns="http://www.w3.org/2000/svg" xmlns:xlink="http://www.w3.org/1999/xlink" xml:space="preserve" overflow="hidden"><defs><clipPath id="clip0"><rect x="150" y="98" width="462" height="232"/></clipPath><clipPath id="clip1"><rect x="150" y="98" width="462" height="232"/></clipPath><clipPath id="clip2"><rect x="151" y="99" width="460" height="231"/></clipPath><clipPath id="clip3"><rect x="151" y="99" width="461" height="231"/></clipPath></defs><g clip-path="url(#clip0)" transform="translate(-150 -98)"><g clip-path="url(#clip1)"><g clip-path="url(#clip2)"><g clip-path="url(#clip3)"><path d="M0 227.331 0 0 407.333 0 814.666 0 814.666 227.331 814.666 454.662 407.333 454.662 0 454.662 0 227.331ZM372.617 300.755C379.271 299.309 389.57 296.184 389.57 295.548 389.512 295.316 387.603 293.812 385.289 292.192 371.402 282.414 353.176 264.882 332.925 241.565 322.221 229.298 322.048 229.009 322.048 226.348 322.048 224.207 322.684 223.281 331.71 213.098 353.928 187.871 366.426 175.778 381.701 164.669 385.694 161.776 389.281 159.288 389.686 159.114 391.074 158.536 389.049 157.668 382.164 155.816 368.856 152.171 358.326 151.014 347.159 152.171 339.984 152.923 326.156 155.469 324.478 156.453 323.957 156.684 321.585 157.494 319.155 158.247 310.013 161.024 289.646 172.48 283.108 178.555 281.546 179.944 279.926 181.217 279.463 181.391 277.669 182.085 264.651 194.351 257.245 202.336 247.698 212.577 236.82 225.653 236.82 226.868 236.878 228.199 250.359 244.168 260.369 254.641 286.233 281.835 312.327 297.052 341.373 301.797 348.895 303.012 364.806 302.549 372.617 300.929ZM478.732 300.813C494.817 297.747 513.506 289.125 529.012 277.669 542.204 267.891 560.257 249.549 576.342 229.53 579.061 226.174 579.524 227.215 570.151 216.049 556.033 199.327 543.882 187.408 530.632 177.456 521.664 170.744 515.878 167.215 506.1 162.586 480.005 150.03 454.373 148.353 427.584 157.379L424.46 158.42 429.667 162.007C439.735 168.951 447.43 175.547 459.812 187.929 470.69 198.748 485.675 215.065 491.346 222.182 494.181 225.711 493.891 227.563 489.783 232.423 466.929 259.675 445 281.372 428.973 292.713L424.922 295.548 427.758 296.647C432.676 298.615 441.991 300.755 451.364 302.086 455.646 302.665 472.888 301.855 478.674 300.697ZM410.747 283.513C414.971 281.141 424.17 274.487 430.419 269.337 441.702 259.906 458.944 241.623 466.755 230.687L469.59 226.637 468.086 224.438C461.201 214.139 438.288 190.243 426.716 181.217 419.657 175.778 408.664 168.661 407.217 168.661 405.134 168.661 387.892 180.754 380.66 187.292 373.369 193.888 368.104 199.153 361.797 206.212 355.664 213.098 345.134 225.943 345.134 226.637 345.134 227.158 349.936 233.349 355.375 239.887 366.137 252.847 380.139 266.271 392.637 275.644 397.728 279.405 406.523 285.249 407.275 285.249 407.391 285.249 409.011 284.439 410.747 283.397Z" fill="#FEFEFE" fill-rule="nonzero" fill-opacity="1" transform="matrix(1.00245 0 0 1 -29.5145 -15.4313)"/><path d="M449.686 303.938C444.016 303.128 439.677 302.318 435.453 301.276 429.898 299.945 420.352 296.647 420.352 296.069 420.352 295.837 422.666 294.044 425.501 292.076 440.66 281.835 456.456 266.676 480.468 239.424 489.899 228.72 491.461 226.695 490.883 225.653 490.593 225.133 487.874 221.892 484.865 218.421 459.87 189.954 444.363 175.142 426.716 162.933 421.74 159.52 420.525 158.304 420.988 157.726 421.74 156.858 428.452 154.544 436.494 152.461 448.819 149.278 468.549 148.989 481.394 151.708 494.933 154.659 508.819 160.214 520.623 167.504 532.368 174.679 547.99 187.755 559.273 199.906 567.836 209.221 581.433 225.422 581.433 226.463 581.433 228.083 565.29 247.004 554.818 257.708 532.6 280.389 516.515 291.151 493.023 299.193 482.898 302.607 476.36 303.706 463.052 303.938 456.745 304.053 450.728 303.995 449.744 303.88Z" fill="#24935F" fill-rule="nonzero" fill-opacity="1" transform="matrix(1.00245 0 0 1 -29.5145 -15.4313)"/><path d="M339.579 303.417C303.359 297.515 273.098 276.396 237.515 232.249L233.117 226.753 235.084 224.265C240.35 217.437 248.739 207.601 255.567 200.369 262.915 192.5 275.876 180.233 277.669 179.539 278.132 179.365 279.81 178.035 281.314 176.704 287.91 170.629 308.219 159.172 317.361 156.395 319.791 155.701 322.279 154.775 322.916 154.486 324.999 153.56 335.124 151.593 342.762 150.725 356.359 149.105 367.352 149.857 380.66 153.155 387.892 155.006 394.893 157.437 394.893 158.189 394.893 158.478 393.331 159.751 391.537 160.908 379.213 168.661 364.69 181.043 351.961 194.583 340.447 206.791 323.841 225.653 323.841 226.521 323.841 227.273 334.083 239.308 343.977 250.186 362.434 270.552 375.742 282.761 390.785 293.118L395.067 296.011 392.347 297.168C388.124 299.02 380.66 301.218 374.353 302.549 366.658 304.227 347.39 304.69 339.579 303.417Z" fill="#344B52" fill-rule="nonzero" fill-opacity="1" transform="matrix(1.00245 0 0 1 -29.5145 -15.4313)"/><path d="M401.605 284.902C385.52 275.239 365.79 256.955 349.589 236.82 344.208 230.108 342.646 227.563 342.993 226.058 343.745 223.165 361.45 202.22 370.766 193.252 380.833 183.589 386.966 178.498 396.976 171.902 403.514 167.504 405.655 166.405 407.449 166.405 409.416 166.405 419.889 172.943 427.873 179.076 439.966 188.449 457.44 206.212 467.276 219.289 472.541 226.232 472.599 226.579 469.243 231.497 462.011 242.085 444.248 261.179 432.56 270.784 422.03 279.579 409.763 287.795 407.217 287.795 406.754 287.795 404.209 286.464 401.605 284.96Z" fill="#07858A" fill-rule="nonzero" fill-opacity="1" transform="matrix(1.00245 0 0 1 -29.5145 -15.4313)"/></g></g></g></g></svg>