<svg width="1582" height="1104" xmlns="http://www.w3.org/2000/svg" xmlns:xlink="http://www.w3.org/1999/xlink" xml:space="preserve" overflow="hidden"><defs><clipPath id="clip0"><rect x="517" y="339" width="1582" height="1104"/></clipPath><clipPath id="clip1"><rect x="517" y="339" width="1582" height="1104"/></clipPath><clipPath id="clip2"><rect x="519" y="339" width="1580" height="797"/></clipPath><clipPath id="clip3"><rect x="519" y="339" width="1580" height="797"/></clipPath></defs><g clip-path="url(#clip0)" transform="translate(-517 -339)"><g clip-path="url(#clip1)"><g clip-path="url(#clip2)"><g clip-path="url(#clip3)"><path d="M0 782.374 0 0 1401.86 0 2803.72 0 2803.72 782.374 2803.72 1564.75 1401.86 1564.75 0 1564.75 0 782.374ZM1282.38 1035.07C1305.28 1030.09 1340.73 1019.34 1340.73 1017.15 1340.53 1016.35 1333.96 1011.17 1325.99 1005.6 1278.2 971.944 1215.48 911.608 1145.78 831.359 1108.94 789.144 1108.35 788.148 1108.35 778.989 1108.35 771.621 1110.54 768.435 1141.6 733.388 1218.07 646.568 1261.08 604.951 1313.65 566.718 1327.39 556.762 1339.73 548.199 1341.13 547.602 1345.91 545.611 1338.94 542.624 1315.24 536.252 1269.44 523.706 1233.2 519.724 1194.77 523.706 1170.08 526.295 1122.48 535.057 1116.71 538.442 1114.92 539.238 1106.75 542.026 1098.39 544.615 1066.93 554.173 996.835 593.6 974.333 614.509 968.957 619.288 963.381 623.669 961.788 624.266 955.615 626.656 910.811 668.871 885.323 696.35 852.467 731.596 815.031 776.599 815.031 780.781 815.23 785.361 861.627 840.32 896.076 876.362 985.086 969.952 1074.89 1022.32 1174.85 1038.65 1200.74 1042.83 1255.5 1041.24 1282.38 1035.66ZM1647.58 1035.27C1702.94 1024.71 1767.26 995.042 1820.63 955.615 1866.03 921.962 1928.16 858.839 1983.51 789.941 1992.87 778.391 1994.47 781.975 1962.21 743.544 1913.62 685.996 1871.8 644.975 1826.2 610.725 1795.34 587.627 1775.42 575.48 1741.77 559.55 1651.97 516.339 1563.75 510.564 1471.56 541.628L1460.8 545.212 1478.72 557.558C1513.37 581.454 1539.86 604.154 1582.47 646.768 1619.91 684.005 1671.48 740.159 1690.99 764.651 1700.75 776.798 1699.76 783.17 1685.62 799.897 1606.96 893.686 1531.49 968.359 1476.33 1007.39L1462.4 1017.15 1472.15 1020.93C1489.08 1027.7 1521.14 1035.07 1553.4 1039.65 1568.13 1041.64 1627.47 1038.85 1647.39 1034.87ZM1413.61 975.727C1428.15 967.563 1459.81 944.663 1481.31 926.941 1520.14 894.483 1579.48 831.558 1606.37 793.923L1616.12 779.984 1610.95 772.417C1587.25 736.973 1508.39 654.733 1468.57 623.669 1444.28 604.951 1406.44 580.458 1401.46 580.458 1394.29 580.458 1334.95 622.076 1310.06 644.577 1284.97 667.278 1266.85 685.398 1245.15 709.692 1224.04 733.388 1187.8 777.595 1187.8 779.984 1187.8 781.776 1204.33 803.083 1223.04 825.584 1260.08 870.189 1308.27 916.387 1351.28 948.646 1368.81 961.589 1399.07 981.701 1401.66 981.701 1402.06 981.701 1407.64 978.913 1413.61 975.329Z" fill="#FEFEFE" fill-rule="nonzero" fill-opacity="1" transform="matrix(1.00047 0 0 1 -101.028 -53.822)"/><path d="M1547.62 1046.02C1528.11 1043.23 1513.17 1040.44 1498.64 1036.86 1479.52 1032.28 1446.66 1020.93 1446.66 1018.94 1446.66 1018.14 1454.63 1011.97 1464.39 1005.2 1516.56 969.952 1570.92 917.781 1653.56 823.991 1686.02 787.153 1691.39 780.183 1689.4 776.599 1688.41 774.807 1679.05 763.656 1668.69 751.708 1582.67 653.737 1529.3 602.76 1468.57 560.744 1451.44 548.996 1447.26 544.814 1448.85 542.823 1451.44 539.836 1474.54 531.871 1502.22 524.702 1544.64 513.75 1612.54 512.754 1656.74 522.114 1703.34 532.269 1751.13 551.385 1791.75 576.475 1832.18 601.167 1885.94 646.17 1924.77 687.987 1954.24 720.047 2001.04 775.802 2001.04 779.387 2001.04 784.962 1945.48 850.077 1909.44 886.916 1832.97 964.974 1777.62 1002.01 1696.77 1029.69 1661.92 1041.44 1639.42 1045.22 1593.62 1046.02 1571.92 1046.42 1551.21 1046.22 1547.82 1045.82Z" fill="#24935F" fill-rule="nonzero" fill-opacity="1" transform="matrix(1.00047 0 0 1 -101.028 -53.822)"/><path d="M1168.68 1044.23C1044.03 1023.92 939.884 951.234 817.42 799.3L802.286 780.382 809.057 771.82C827.177 748.323 856.051 714.471 879.548 689.58 904.837 662.499 949.442 620.284 955.615 617.894 957.208 617.297 962.983 612.717 968.16 608.137 990.861 587.228 1060.75 547.801 1092.22 538.243 1100.58 535.853 1109.14 532.667 1111.33 531.672 1118.5 528.486 1153.35 521.715 1179.63 518.728 1226.43 513.153 1264.26 515.741 1310.06 527.092 1334.95 533.464 1359.05 541.827 1359.05 544.416 1359.05 545.411 1353.67 549.792 1347.5 553.775 1305.08 580.458 1255.1 623.071 1211.3 669.667 1171.67 711.683 1114.52 776.599 1114.52 779.586 1114.52 782.175 1149.76 823.593 1183.82 861.029 1247.34 931.122 1293.14 973.138 1344.91 1008.78L1359.65 1018.74 1350.29 1022.72C1335.75 1029.09 1310.06 1036.66 1288.36 1041.24 1261.87 1047.01 1195.56 1048.61 1168.68 1044.23Z" fill="#344B52" fill-rule="nonzero" fill-opacity="1" transform="matrix(1.00047 0 0 1 -101.028 -53.822)"/><path d="M1382.15 980.506C1326.79 947.252 1258.89 884.327 1203.13 815.031 1184.61 791.932 1179.24 783.17 1180.43 777.993 1183.02 768.036 1243.95 695.952 1276.01 665.087 1310.66 631.833 1331.77 614.31 1366.22 591.609 1388.72 576.475 1396.09 572.692 1402.26 572.692 1409.03 572.692 1445.07 595.193 1472.55 616.301 1514.17 648.56 1574.31 709.692 1608.16 754.695 1626.28 778.59 1626.48 779.785 1614.93 796.711 1590.04 833.151 1528.9 898.864 1488.68 931.919 1452.44 962.186 1410.22 990.462 1401.46 990.462 1399.87 990.462 1391.11 985.883 1382.15 980.705Z" fill="#07858A" fill-rule="nonzero" fill-opacity="1" transform="matrix(1.00047 0 0 1 -101.028 -53.822)"/></g></g><text fill="#31474E" fill-opacity="1" font-family="Segoe UI,Segoe UI_MSFontService,sans-serif" font-style="normal" font-variant="normal" font-weight="700" font-stretch="normal" font-size="229" text-anchor="start" direction="ltr" writing-mode="lr-tb" unicode-bidi="normal" text-decoration="none" transform="matrix(1 0 0 1 675.492 1250)">Reform</text><text fill="#24935E" fill-opacity="1" font-family="Segoe UI,Segoe UI_MSFontService,sans-serif" font-style="normal" font-variant="normal" font-weight="700" font-stretch="normal" font-size="229" text-anchor="start" direction="ltr" writing-mode="lr-tb" unicode-bidi="normal" text-decoration="none" transform="matrix(1 0 0 1 1535.55 1250)">Lab</text></g></g></svg>